<svg width="1024" height="1024" viewBox="0 0 1024 1024" xmlns="http://www.w3.org/2000/svg">
  <defs>
    <filter id="shadow" x="-20%" y="-20%" width="140%" height="140%">
      <feDropShadow dx="0" dy="8" stdDeviation="15" flood-color="#FFC107" flood-opacity="0.25" />
    </filter>
  </defs>

  <!-- Solid white background -->
  <rect width="1024" height="1024" fill="#ffffff" />
  
  <g transform="translate(10, -10)">
    <rect x="130" y="370" width="280" height="280" rx="65" fill="#FFC107" filter="url(#shadow)" />
    
    <text x="270" y="575" font-family="system-ui, -apple-system, BlinkMacSystemFont, 'Segoe UI', Roboto, sans-serif" font-weight="900" font-size="190" fill="#ffffff" text-anchor="middle" letter-spacing="-5">PR</text>
    
    <text x="450" y="575" font-family="system-ui, -apple-system, BlinkMacSystemFont, 'Segoe UI', Roboto, sans-serif" font-weight="800" font-size="220" fill="#2A2B2E" text-anchor="start" letter-spacing="-8">note</text>
    
    <path transform="translate(850, 420) scale(6)" fill="#FFC107" d="M11.5,4L9.81,7.69L6.12,9.38L9.81,11.06L11.5,14.75L13.19,11.06L16.88,9.38L13.19,7.69L11.5,4M5.06,10.12L4.08,12.3L1.9,13.28L4.08,14.26L5.06,16.44L6.04,14.26L8.22,13.28L6.04,12.3L5.06,10.12M5.06,2.31L4.08,4.5L1.9,5.48L4.08,6.46L5.06,8.64L6.04,6.46L8.22,5.48L6.04,4.5L5.06,2.31Z"/>
  </g>
</svg>
